Exact Audio Copy V0.99 prebeta 1 from 25. May 2007

EAC 抓取日志文件从20. 三月 2010, 23:38

董文华 / 20世纪中华歌坛名人百集珍藏版

使用驱动器  ：PIONEER DVD-RW  DVR-115   Adapter: 0  ID: 0

读取模式     : 保护
使用精确流   : 是
废除音频缓冲 : 是
使用 C2 指针 : 否

读取偏移校正                   : 10
读取 Lead-In 和 Lead-Out       : 否
用静音填充抓取中丢失偏移的采样 : 是
去除首尾静音块                 : 否
已用接口                       : Win NT 及 2000 本地 Win32 接口

所用输出格式 : 内部 WAV 函数
样本格式     : 44.100 Hz;16 Bit;立体声


被抓轨 CD 的 TOC

     音轨 |   开始   |   长度   | 起始扇区 | 结尾扇区 
    --------------------------------------------------
       1  |  0:00.00 |  4:46.25 |       0  |   21474  
       2  |  4:46.25 |  2:22.67 |   21475  |   32191  
       3  |  7:09.17 |  3:34.15 |   32192  |   48256  
       4  | 10:43.32 |  3:08.63 |   48257  |   62419  
       5  | 13:52.20 |  2:23.05 |   62420  |   73149  
       6  | 16:15.25 |  4:39.29 |   73150  |   94103  
       7  | 20:54.54 |  3:06.08 |   94104  |  108061  
       8  | 24:00.62 |  2:13.70 |  108062  |  118106  
       9  | 26:14.57 |  4:48.38 |  118107  |  139744  
      10  | 31:03.20 |  3:34.72 |  139745  |  155866  
      11  | 34:38.17 |  3:29.13 |  155867  |  171554  
      12  | 38:07.30 |  2:02.40 |  171555  |  180744  
      13  | 40:09.70 |  4:58.00 |  180745  |  203094  
      14  | 45:07.70 |  2:48.15 |  203095  |  215709  
      15  | 47:56.10 |  3:46.37 |  215710  |  232696  
      16  | 51:42.47 |  4:57.03 |  232697  |  254974  


范围状态及错误

已选择范围

     文件名 E:\文件夹\20世纪中华歌坛名人百集珍藏版-董文华[lwg188原创]\董文华 - 20世纪中华歌坛名人百集珍藏版.wav

     峰值电平 79.9 %
     范围质量 100.0 %
     复制 CRC 9A445009
     复制成功

没有错误发生

状态报告结尾
